<svg t="1582165579752" class="icon" viewBox="0 0 1024 1024" version="1.1" xmlns="http://www.w3.org/2000/svg" p-id="10266" width="128" height="128"><path d="M683.517777 516.040575C673.386119 516.040575 663.075262 505.87652 663.075262 495.490738 663.075262 485.251766 673.349672 474.940905 683.517777 474.940905 698.98609 474.940905 709.256453 485.251766 709.256453 495.490738 709.256453 505.87652 698.98609 516.040575 683.517777 516.040575M570.41522 516.040575C560.211681 516.040575 549.862347 505.87652 549.862347 495.490738 549.862347 485.251766 560.211681 474.940905 570.41522 474.940905 586.025277 474.940905 596.157945 485.251766 596.157945 495.490738 596.157945 505.87652 586.025277 516.040575 570.41522 516.040575M801.809173 541.786337C801.809173 459.58396 719.535923 392.591723 627.124947 392.591723 529.277077 392.591723 452.262529 459.615348 452.262529 541.786337 452.262529 624.207403 529.312514 690.977914 627.124947 690.977914 647.60391 690.977914 668.268151 685.855896 688.817988 680.70249L745.202714 711.638108 729.739465 660.228591C771.020364 629.218053 801.809173 588.14977 801.809173 541.786337M359.674371 377.159855C344.246554 377.159855 328.703318 366.848998 328.703318 351.452566 328.703318 335.985264 344.246554 325.781726 359.674371 325.781726 375.106236 325.781726 385.349262 335.949831 385.349262 351.452566 385.349262 366.848998 375.106236 377.159855 359.674371 377.159855M503.569788 325.781726C519.11201 325.781726 529.312514 335.985264 529.312514 351.452566 529.312514 366.848998 519.11201 377.159855 503.569788 377.159855 488.208794 377.159855 472.741492 366.848998 472.741492 351.452566 472.741492 335.949831 488.173357 325.781726 503.569788 325.781726M614.093616 381.518481C620.773805 381.518481 627.346676 382.024711 633.954981 382.747605 616.162066 299.896244 527.607534 238.35406 426.484366 238.35406 313.457744 238.35406 220.868574 315.360508 220.868574 413.212428 220.868574 469.677142 251.657384 516.040575 303.146884 552.057711L282.593 613.896545 354.485529 577.875357C380.192818 582.921444 400.813525 588.14977 426.484366 588.14977 432.950929 588.14977 439.338516 587.86122 445.654224 587.390428 441.663118 573.628102 439.302068 559.251215 439.302068 544.254708 439.338516 454.426505 516.458361 381.518481 614.093616 381.518481M511.996538 1.348548C238.349895 1.348548 16.493931 223.19896 16.493931 496.808131 16.493931 770.508899 238.345732 992.31629 511.996538 992.31629 785.654285 992.31629 1007.506085 770.508899 1007.506085 496.808131 1007.506085 223.19896 785.654285 1.348548 511.996538 1.348548M511.240469 27.88708C769.41386 27.88708 979.454028 237.884289 979.454028 496.052135 979.454028 754.268484 769.41386 964.292023 511.240469 964.292023 253.029665 964.292023 42.989498 754.268484 42.989498 496.052135 42.989498 237.884289 253.029665 27.88708 511.240469 27.88708" p-id="10267" fill="#2c2c2c"></path></svg>