<svg t="1582165557805" class="icon" viewBox="0 0 1024 1024" version="1.1" xmlns="http://www.w3.org/2000/svg" p-id="9465" width="128" height="128"><path d="M741.486648 605.079932c-3.621481-49.845245-37.068244-91.602278-56.401568-113.202225 2.683109-6.2831 9.215896-42.655496-16.004509-67.473741 0.039909-0.595564 0.039909-1.184989 0.039909-1.763157 0-97.898681-69.679989-168.365592-157.115364-168.684864-87.445608 0.319272-157.125597 70.78823-157.125597 168.684864 0 0.578168-0.007163 1.168616 0.032746 1.763157-25.216311 24.817222-18.674315 61.189617-16.004509 67.473741-19.320021 21.599947-52.769854 63.35698-56.397475 113.202225-0.652869 13.105482 1.37123 32.19219 7.774057 40.672328 7.797593 10.346649 29.207206-2.077312 44.51689-35.124985 4.260024 15.309684 14.090926 38.686091 36.335556 68.352761-37.227879 8.496511-47.847751 45.214784-35.32453 65.286935 8.832156 14.144138 29.057803 25.77606 63.909565 25.77606 62.012356 0 89.396029-16.664541 101.619422-28.268834 2.489704-2.532683 6.083555-3.753487 10.663874-3.76372 4.569062 0.010233 8.170077 1.231037 10.653641 3.76372 12.221346 11.605316 39.61116 28.268834 101.610212 28.268834 34.865065 0 55.072293-11.631922 63.905472-25.77606 12.530384-20.072151 1.914606-56.790424-35.307134-65.286935 22.2477-29.66974 32.079626-53.043077 36.335556-68.352761 15.315824 33.047674 36.719296 45.468564 44.527123 35.124985C740.121558 637.273145 742.148727 618.185414 741.486648 605.079932L741.486648 605.079932zM741.486648 605.079932" p-id="9466" fill="#2c2c2c"></path><path d="M511.61626 84.469833c57.661258 0 113.586988 11.288091 166.223812 33.552164 50.851155 21.50785 96.52438 52.303226 135.7518 91.530646s70.022797 84.900645 91.530646 135.7518c22.26305 52.636824 33.552164 108.562555 33.552164 166.223812s-11.288091 113.586988-33.552164 166.223812c-21.50785 50.851155-52.303226 96.52438-91.530646 135.7518-39.22742 39.22742-84.900645 70.022797-135.7518 91.530646-52.636824 22.26305-108.562555 33.552164-166.223812 33.552164s-113.586988-11.288091-166.223812-33.552164c-50.851155-21.50785-96.52438-52.303226-135.7518-91.530646-39.22742-39.226397-70.022797-84.900645-91.530646-135.7518-22.26305-52.636824-33.552164-108.562555-33.552164-166.223812s11.288091-113.586988 33.552164-166.223812c21.50785-50.851155 52.303226-96.52438 91.530646-135.7518s84.900645-70.022797 135.7518-91.530646C398.029272 95.758947 453.955003 84.469833 511.61626 84.469833M511.61626 64.003709c-247.161193 0-447.524546 200.363354-447.524546 447.524546s200.363354 447.524546 447.524546 447.524546 447.524546-200.363354 447.524546-447.524546S758.777453 64.003709 511.61626 64.003709L511.61626 64.003709z" p-id="9467" fill="#2c2c2c"></path></svg>